#!OML:ASF E:\motion texture\Top Level 1\Subject 1\Session 1\male.ASF
:FULLY-SPECIFIED
:DEGREES
194
root -0.58239 18.1274 4.31694 123.489 -77.4218 -125.395
lowerback 5.18907 2.85366 9.87646
upperback -1.61492 4.51924 3.87604
thorax -4.16568 1.9692 -1.83616
lowerneck -20.09 -4.1419 -5.09728
upperneck 18.7219 -5.51852 5.47279
head 9.52895 -2.34593 1.95609
rclavicle -4.5472e-015 -6.40087e-014
rhumerus 9.13776 23.4304 -80.0024
rradius 81.6717
rwrist -8.20281
rhand -12.0926 -7.5631
rfingers 7.12502
rthumb 13.9678 -37.0739
lclavicle -4.5472e-015 -6.40087e-014
lhumerus -62.1009 -12.7556 80.4387
lradius 50.3085
lwrist -1.17448
lhand -5.83605 5.14989
lfingers 7.12502
lthumb 19.99 34.1417
rfemur -2.90629 4.73274 37.8186
rtibia 21.9385
rfoot -9.52244 -5.20546
rtoes 19.102
lfemur -80.6467 8.80617 -10.8177
ltibia 58.0507
lfoot 367.343 -169.41
ltoes 1.1081
195
root -0.727632 18.1453 4.31949 123.915 -77.3555 -125.923
lowerback 5.34016 2.93943 9.93301
upperback -1.64676 4.66057 3.85124
thorax -4.26487 2.03186 -1.91213
lowerneck -20.1039 -4.18784 -5.17468
upperneck 18.7808 -5.55485 5.44513
head 9.55558 -2.37093 1.95379
rclavicle 9.15652e-015 2.76311e-014
rhumerus 10.0788 23.4478 -79.2631
rradius 81.5288
rwrist -8.04016
rhand -11.9608 -7.49354
rfingers 7.12502
rthumb 14.0947 -36.9955
lclavicle 9.15652e-015 2.76311e-014
lhumerus -62.7154 -12.6646 79.9083
lradius 50.591
lwrist -1.10555
lhand -5.6383 5.15548
lfingers 7.12502
lthumb 20.18 34.1273
rfemur -2.18179 4.4501 37.7994
rtibia 21.6883
rfoot -9.60109 -5.38479
rtoes 18.9031
lfemur -82.6771 8.50697 -11.0986
ltibia 58.0857
lfoot 367.384 -169.027
ltoes 1.38415
196
root -0.872668 18.161 4.3216 124.315 -77.3021 -126.447
lowerback 5.5076 3.01693 9.95095
upperback -1.66281 4.78962 3.83763
thorax -4.36138 2.09013 -1.95579
lowerneck -20.1333 -4.226 -5.24052
upperneck 18.8295 -5.5802 5.40945
head 9.58024 -2.39058 1.94817
rclavicle 2.98177e-015 -2.22639e-014
rhumerus 10.9163 23.4425 -78.5697
rradius 81.3938
rwrist -7.86306
rhand -11.8388 -7.40219
rfingers 7.12502
rthumb 14.2124 -36.8959
lclavicle 2.98177e-015 -2.22639e-014
lhumerus -63.2402 -12.5535 79.4161
lradius 50.8039
lwrist -1.0551
lhand -5.51269 5.14701
lfingers 7.12502
lthumb 20.3007 34.106
rfemur -1.45683 4.20119 37.7631
rtibia 21.4853
rfoot -9.69085 -5.53281
rtoes 18.6088
lfemur -84.4779 8.21838 -11.3594
ltibia 58.2604
lfoot 367.392 -168.613
ltoes 1.56689
197
root -1.01784 18.1742 4.3233 124.697 -77.247 -126.967
lowerback 5.67387 3.08631 9.9478
upperback -1.66051 4.90481 3.83673
thorax -4.44179 2.14338 -1.97373
lowerneck -20.1745 -4.25377 -5.29948
upperneck 18.8606 -5.59149 5.37521
head 9.5999 -2.4028 1.9438
rclavicle -3.41288e-014 -1.00585e-013
rhumerus 11.6502 23.4193 -77.9364
rradius 81.276
rwrist -7.69274
rhand -11.7238 -7.31643
rfingers 7.12502
rthumb 14.3232 -36.8024
lclavicle -3.41288e-014 -1.00585e-013
lhumerus -63.6762 -12.4106 78.9591
lradius 50.9562
lwrist -1.01005
lhand -5.48576 5.08336
lfingers 7.12502
lthumb 20.3266 34.0396
rfemur -0.737175 3.99393 37.7205
rtibia 21.3324
rfoot -9.79495 -5.62499
rtoes 18.2094
lfemur -86.0539 7.95703 -11.5931
ltibia 58.5558
lfoot 367.38 -168.184
ltoes 1.59543
198
root -1.16307 18.1848 4.32473 125.073 -77.1829 -127.485
lowerback 5.83026 3.15047 9.93499
upperback -1.64256 5.0096 3.84628
thorax -4.50273 2.19308 -1.97414
lowerneck -20.2281 -4.27249 -5.34806
upperneck 18.8784 -5.59148 5.34049
head 9.61613 -2.40883 1.93902
rclavicle 1.50331e-014 6.50026e-014
rhumerus 12.2752 23.3803 -77.3675
rradius 81.1873
rwrist -7.54027
rhand -11.6305 -7.23333
rfingers 7.12502
rthumb 14.413 -36.7129
lclavicle 1.50331e-014 6.50026e-014
lhumerus -64.0283 -12.2413 78.5386
lradius 51.0563
lwrist -0.965517
lhand -5.47567 5.01782
lfingers 7.12502
lthumb 20.3363 33.9731
rfemur -0.0336937 3.82945 37.6738
rtibia 21.2313
rfoot -9.9091 -5.65201
rtoes 17.6927
lfemur -87.4121 7.73229 -11.8
ltibia 58.9577
lfoot 367.339 -167.768
ltoes 1.40892
199
root -1.30849 18.1927 4.32598 125.434 -77.1062 -127.98
lowerback 5.9594 3.21108 9.9248
upperback -1.61242 5.10488 3.86218
thorax -4.53664 2.23954 -1.96679
lowerneck -20.2785 -4.28328 -5.37815
upperneck 18.8745 -5.58394 5.30223
head 9.62302 -2.41053 1.93107
rclavicle -8.44835e-015 7.7526e-015
rhumerus 12.7811 23.3191 -76.8764
rradius 81.1279
rwrist -7.40659
rhand -11.56 -7.17828
rfingers 7.12502
rthumb 14.481 -36.653
lclavicle -8.44835e-015 7.7526e-015
lhumerus -64.305 -12.061 78.1586
lradius 51.1173
lwrist -0.915469
lhand -5.52321 4.91886
lfingers 7.12502
lthumb 20.2906 33.879
rfemur 0.644931 3.71044 37.6294
rtibia 21.1738
rfoot -10.036 -5.6144
rtoes 17.1112
lfemur -88.5658 7.54687 -11.978
ltibia 59.4583
lfoot 367.301 -167.386
ltoes 1.07128
200
root -1.45402 18.1977 4.3271 125.786 -77.0163 -128.446
lowerback 6.05891 3.26918 9.92139
upperback -1.5795 5.19281 3.8828
thorax -4.55146 2.28307 -1.9558
lowerneck -20.3265 -4.28521 -5.39724
upperneck 18.8615 -5.56848 5.26984
head 9.62569 -2.40718 1.92456
rclavicle 4.00054e-015 6.08281e-014
rhumerus 13.1587 23.2377 -76.4664
rradius 81.101
rwrist -7.30019
rhand -11.4956 -7.12992
rfingers 7.12502
rthumb 14.543 -36.6001
lclavicle 4.00054e-015 6.08281e-014
lhumerus -64.5186 -11.8789 77.8266
lradius 51.1459
lwrist -0.862769
lhand -5.57636 4.82752
lfingers 7.12502
lthumb 20.2396 33.7931
rfemur 1.28699 3.63854 37.5895
rtibia 21.1563
rfoot -10.1708 -5.51431
rtoes 16.4559
lfemur -89.5311 7.40168 -12.1284
ltibia 60.0435
lfoot 367.278 -167.052
ltoes 0.636842
201
root -1.59956 18.2001 4.32805 126.125 -76.9095 -128.876
lowerback 6.12722 3.32677 9.93179
upperback -1.54625 5.27658 3.9066
thorax -4.54782 2.32492 -1.9466
lowerneck -20.3721 -4.28402 -5.4086
upperneck 18.8433 -5.55228 5.24308
head 9.62599 -2.40237 1.91888
rclavicle -3.90115e-015 -4.92986e-014
rhumerus 13.4146 23.1385 -76.13
rradius 81.1025
rwrist -7.22911
rhand -11.442 -7.09938
rfingers 7.12502
rthumb 14.5946 -36.5659
lclavicle -3.90115e-015 -4.92986e-014
lhumerus -64.6665 -11.7104 77.551
lradius 51.1437
lwrist -0.810644
lhand -5.62772 4.75101
lfingers 7.12502
lthumb 20.1902 33.7218
rfemur 1.89064 3.61576 37.561
rtibia 21.1742
rfoot -10.3167 -5.35764
rtoes 15.7957
lfemur -90.3147 7.29978 -12.2499
ltibia 60.7044
lfoot 367.279 -166.779
ltoes 0.159867
202
root -1.745 18.2001 4.32886 126.467 -76.7919 -129.275
lowerback 6.15938 3.38601 9.95108
upperback -1.51769 5.35848 3.93035
thorax -4.52808 2.36619 -1.93981
lowerneck -20.4059 -4.28131 -5.41258
upperneck 18.8198 -5.53818 5.22222
head 9.6224 -2.39762 1.91388
rclavicle 2.55687e-014 -1.78906e-015
rhumerus 13.5502 23.0189 -75.8641
rradius 81.1264
rwrist -7.19612
rhand -11.3801 -7.07906
rfingers 7.12502
rthumb 14.6543 -36.5412
lclavicle 2.55687e-014 -1.78906e-015
lhumerus -64.7638 -11.5768 77.3444
lradius 51.1252
lwrist -0.760349
lhand -5.6918 4.6896
lfingers 7.12502
lthumb 20.1286 33.6668
rfemur 2.45058 3.63217 37.5378
rtibia 21.2199
rfoot -10.474 -5.15464
rtoes 15.1549
lfemur -90.9272 7.2376 -12.3515
ltibia 61.4353
lfoot 367.316 -166.581
ltoes -0.278403
203
root -1.88948 18.1981 4.32983 126.778 -76.6751 -129.601
lowerback 6.16316 3.44441 9.98181
upperback -1.50496 5.43751 3.94988
thorax -4.50794 2.40528 -1.94186
lowerneck -20.4431 -4.27907 -5.46592
upperneck 18.8142 -5.52751 5.27194
head 9.62973 -2.39003 1.94112
rclavicle -3.19546e-014 -4.57205e-015
rhumerus 13.5659 22.8707 -75.6702
rradius 81.1553
rwrist -7.18178
rhand -11.3 -7.04924
rfingers 7.12502
rthumb 14.7315 -36.5058
lclavicle -3.19546e-014 -4.57205e-015
lhumerus -64.8158 -11.4932 77.2119
lradius 51.0901
lwrist -0.724217
lhand -5.7575 4.62831
lfingers 7.12502
lthumb 20.0655 33.6122
rfemur 2.95548 3.66584 37.5143
rtibia 21.2812
rfoot -10.6333 -4.92218
rtoes 14.4817
lfemur -91.3837 7.19795 -12.437
ltibia 62.2351
lfoot 367.393 -166.454
ltoes -0.629801
204
root -2.03375 18.1938 4.33052 127.079 -76.5547 -129.875
lowerback 6.12416 3.5032 10.0184
upperback -1.50534 5.51261 3.96642
thorax -4.47696 2.44244 -1.94718
lowerneck -20.461 -4.27834 -5.50349
upperneck 18.805 -5.52358 5.31606
head 9.63204 -2.3855 1.96305
rclavicle 2.76062e-014 4.57205e-015
rhumerus 13.4811 22.7136 -75.5363
rradius 81.1824
rwrist -7.17898
rhand -11.2109 -7.02312
rfingers 7.12502
rthumb 14.8173 -36.4734
lclavicle 2.76062e-014 4.57205e-015
lhumerus -64.8285 -11.4646 77.1553
lradius 51.0507
lwrist -0.696085
lhand -5.81917 4.58867
lfingers 7.12502
lthumb 20.0062 33.5788
rfemur 3.40339 3.69541 37.488
rtibia 21.361
rfoot -10.7965 -4.65644
rtoes 13.7993
lfemur -91.6893 7.19002 -12.5055
ltibia 63.1012
lfoot 367.51 -166.404
ltoes -0.88788
205
root -2.17767 18.1878 4.33099 127.347 -76.4375 -130.069
lowerback 6.04656 3.55599 10.0615
upperback -1.52351 5.57633 3.97845
thorax -4.44306 2.47348 -1.95751
lowerneck -20.4639 -4.27544 -5.53322
upperneck 18.8011 -5.52146 5.36416
head 9.63352 -2.38116 1.98502
rclavicle 4.27139e-014 2.96189e-014
rhumerus 13.3077 22.5631 -75.4596
rradius 81.1972
rwrist -7.16912
rhand -11.0971 -7.00945
rfingers 7.12502
rthumb 14.9269 -36.4516
lclavicle 4.27139e-014 2.96189e-014
lhumerus -64.8136 -11.4844 77.1659
lradius 51.0115
lwrist -0.679639
lhand -5.86586 4.55887
lfingers 7.12502
lthumb 19.9613 33.5536
rfemur 3.7936 3.70177 37.4562
rtibia 21.4529
rfoot -10.9655 -4.36966
rtoes 13.1104
lfemur -91.849 7.20356 -12.5575
ltibia 64.0367
lfoot 367.661 -166.408
ltoes -1.03828
206
root -2.32144 18.1797 4.33112 127.581 -76.3181 -130.181
lowerback 5.92724 3.60094 10.1136
upperback -1.55782 5.62565 3.98858
thorax -4.40303 2.49698 -1.97091
lowerneck -20.4609 -4.26862 -5.53755
upperneck 18.8015 -5.51809 5.39365
head 9.63403 -2.37669 1.99659
rclavicle 6.70898e-015 -3.79679e-014
rhumerus 13.0659 22.4336 -75.433
rradius 81.1916
rwrist -7.14056
rhand -10.9862 -6.9883
rfingers 7.12502
rthumb 15.0338 -36.4225
lclavicle 6.70898e-015 -3.79679e-014
lhumerus -64.7716 -11.5365 77.2329
lradius 50.9794
lwrist -0.674587
lhand -5.89406 4.54266
lfingers 7.12502
lthumb 19.9342 33.5403
rfemur 4.12503 3.68706 37.4278
rtibia 21.5521
rfoot -11.1379 -4.07412
rtoes 12.4012
lfemur -91.8706 7.24408 -12.5883
ltibia 65.0427
lfoot 367.834 -166.437
ltoes -1.11669
